<svg xmlns="http://www.w3.org/2000/svg" viewBox="380 250 180 225" role="img" aria-label="Petal Hoodie (Wine) 앞 프린트 확대"><defs><filter id="sh" x="-20%" y="-20%" width="140%" height="140%"><feDropShadow dx="0" dy="8" stdDeviation="10" flood-color="#000" flood-opacity=".13"/></filter><filter id="sand" x="0" y="0" width="100%" height="100%"><feTurbulence type="fractalNoise" baseFrequency="1.1" numOctaves="1" seed="4"/><feColorMatrix values="0 0 0 0 1  0 0 0 0 1  0 0 0 0 1  0 0 0 1.6 -0.9"/><feComposite in2="SourceGraphic" operator="in"/></filter><linearGradient id="fold" x1="0" x2="1"><stop offset="0" stop-color="#000" stop-opacity=".10"/><stop offset=".22" stop-color="#000" stop-opacity="0"/><stop offset=".78" stop-color="#000" stop-opacity="0"/><stop offset="1" stop-color="#000" stop-opacity=".10"/></linearGradient><radialGradient id="wheel" cx=".5" cy=".5" r=".5"><stop offset=".78" stop-color="#000" stop-opacity="0"/><stop offset="1" stop-color="#000" stop-opacity=".16"/></radialGradient></defs><g filter="url(#sh)"><path d="M300,250L204,262L102,700L162,720L234,450L236,775Q400,782 564,775L566,450L638,720L698,700L596,262L500,250Z" fill="#5E1E28" stroke="rgba(255,255,255,.10)" stroke-width="2" stroke-linejoin="round"/><path d="M300,250L204,262L102,700L162,720L234,450L236,775Q400,782 564,775L566,450L638,720L698,700L596,262L500,250Z" fill="url(#fold)"/><path d="M104,690L162,708L166,690L108,672ZM696,690L638,708L634,690L692,672Z" fill="#5E1E28" stroke="rgba(255,255,255,.14)" stroke-width="2"/><path d="M236,740Q400,748 564,740L564,775Q400,782 236,775Z" fill="#5E1E28" stroke="rgba(255,255,255,.14)" stroke-width="2"/><path d="M300,250C286,170 330,120 400,120C470,120 514,170 500,250C470,238 430,232 400,262C370,232 330,238 300,250Z" fill="#5E1E28" stroke="rgba(255,255,255,.10)" stroke-width="2"/><path d="M330,244C326,190 356,156 400,156C444,156 474,190 470,244C446,236 420,238 400,262C380,238 354,236 330,244Z" fill="#000" opacity="0.35"/><path d="M380,262L376,370M420,262L424,370" stroke="rgba(255,255,255,.14)" stroke-width="4" stroke-linecap="round"/><path d="M300,560L500,560L540,700L260,700Z" fill="none" stroke="rgba(255,255,255,.14)" stroke-width="2.5" stroke-linejoin="round"/></g><g transform="translate(424,314) scale(0.5)"><circle cx="100" cy="100" r="70" fill="none" stroke="#F2EDE2" stroke-width="8.4"/><path d="M100,86C65.2,43.3 134.8,43.3 100,86Z" fill="#F2EDE2"/><path d="M113.3,95.7C143.2,49.4 164.7,115.5 113.3,95.7Z" fill="#F2EDE2"/><path d="M108.2,111.3C161.4,125.4 105.2,166.3 108.2,111.3Z" fill="#F2EDE2"/><path d="M91.8,111.3C94.8,166.3 38.6,125.4 91.8,111.3Z" fill="#F2EDE2"/><path d="M86.7,95.7C35.3,115.5 56.8,49.4 86.7,95.7Z" fill="#F2EDE2"/><circle cx="100" cy="100" r="11.2" fill="#fff"/></g></svg>